<svg xmlns="http://www.w3.org/2000/svg" xmlns:xlink="http://www.w3.org/1999/xlink" width="1080" zoomAndPan="magnify" viewBox="0 0 810 809.999993" height="1080" preserveAspectRatio="xMidYMid meet" version="1.0"><defs><g/></defs><g fill="#000000" fill-opacity="1"><g transform="translate(164.873419, 426.374999)"><g><path d="M 76.128906 -17.785156 C 75.660156 -18.484375 74.722656 -18.640625 74.101562 -18.175781 C 66.144531 -12.558594 58.96875 -7.175781 52.414062 -2.105469 C 47.96875 -9.4375 36.113281 -14.273438 20.28125 -20.671875 C 18.253906 -21.449219 16.222656 -22.308594 14.117188 -23.164062 C 7.878906 -25.660156 5.695312 -29.5625 7.410156 -34.945312 C 9.75 -42.433594 19.578125 -52.339844 32.914062 -60.839844 C 45.628906 -68.875 58.109375 -73.398438 63.960938 -72.070312 C 65.832031 -71.683594 67.9375 -70.589844 67.3125 -66.222656 C 67.15625 -65.441406 67.78125 -64.660156 68.5625 -64.507812 C 69.421875 -64.429688 70.199219 -64.972656 70.277344 -65.832031 C 71.214844 -72.460938 67.15625 -74.410156 64.660156 -75.035156 C 50.464844 -78.234375 10.296875 -54.132812 4.523438 -35.878906 C 2.417969 -29.015625 5.382812 -23.476562 12.949219 -20.359375 C 15.054688 -19.5 17.160156 -18.640625 19.1875 -17.863281 C 36.191406 -10.996094 46.644531 -6.472656 50.074219 -0.3125 C 22.464844 21.292969 8.425781 36.738281 10.765625 43.367188 C 11.152344 44.460938 12.324219 46.097656 15.601562 46.097656 C 15.835938 46.097656 16.144531 46.097656 16.378906 46.097656 C 26.832031 45.316406 49.609375 29.71875 53.976562 7.644531 C 54.523438 5.070312 54.367188 2.730469 53.742188 0.625 C 60.371094 -4.445312 67.703125 -9.90625 75.816406 -15.679688 C 76.519531 -16.222656 76.675781 -17.160156 76.128906 -17.785156 Z M 51.011719 7.097656 C 46.800781 28.15625 24.726562 42.433594 16.144531 43.132812 C 15.367188 43.132812 13.882812 43.132812 13.648438 42.355469 C 12.792969 40.015625 17.160156 33.382812 24.804688 25.660156 C 31.277344 19.03125 40.09375 11.308594 51.089844 2.652344 C 51.402344 4.054688 51.324219 5.460938 51.011719 7.097656 Z M 51.011719 7.097656 "/></g></g></g><g fill="#000000" fill-opacity="1"><g transform="translate(238.037486, 426.374999)"><g><path d="M 32.605469 -17.316406 C 31.902344 -17.628906 30.964844 -17.316406 30.652344 -16.613281 C 24.726562 -4.523438 20.28125 -0.703125 18.175781 -1.09375 C 17.316406 -1.246094 14.507812 -2.886719 13.804688 -16.535156 C 13.804688 -17.160156 13.339844 -17.707031 12.792969 -17.863281 C 12.167969 -18.019531 11.464844 -17.863281 11.152344 -17.316406 C 10.6875 -16.769531 10.21875 -16.144531 9.75 -15.445312 C 7.800781 -12.792969 5.226562 -9.203125 2.105469 -5.851562 C 1.636719 -5.304688 1.246094 -4.992188 1.015625 -4.835938 C 0.46875 -7.566406 3.355469 -18.019531 7.957031 -21.292969 C 9.28125 -22.230469 11.074219 -22.933594 13.492188 -20.125 C 14.039062 -19.5 14.976562 -19.421875 15.601562 -19.96875 C 16.222656 -20.4375 16.300781 -21.449219 15.835938 -22.074219 C 12.871094 -25.507812 10.0625 -25.429688 8.191406 -24.804688 C 2.183594 -22.699219 -1.871094 -11.152344 -2.027344 -5.851562 C -2.105469 -3.664062 -1.480469 -2.261719 -0.234375 -1.792969 C 1.714844 -1.015625 3.664062 -3.121094 4.289062 -3.820312 C 6.941406 -6.707031 9.359375 -9.828125 11.074219 -12.246094 C 11.933594 -3.355469 14.039062 1.09375 17.550781 1.871094 C 17.863281 1.871094 18.175781 1.949219 18.484375 1.949219 C 23.789062 1.949219 29.484375 -7.332031 33.304688 -15.289062 C 33.695312 -16.066406 33.382812 -16.925781 32.605469 -17.316406 Z M 32.605469 -17.316406 "/></g></g></g><g fill="#000000" fill-opacity="1"><g transform="translate(267.05351, 426.374999)"><g><path d="M 31.355469 -17.394531 C 30.652344 -17.785156 29.71875 -17.550781 29.328125 -16.769531 C 27.457031 -13.570312 22.542969 -4.914062 19.734375 -5.226562 C 19.1875 -5.304688 17.628906 -6.085938 16.066406 -11.542969 C 14.976562 -15.367188 13.492188 -18.953125 10.609375 -19.109375 C 8.503906 -19.265625 6.160156 -17.628906 2.574219 -10.921875 C 3.511719 -14.273438 4.523438 -17.628906 5.304688 -20.359375 C 5.617188 -21.371094 5.851562 -22.230469 6.085938 -23.089844 C 6.316406 -23.867188 5.851562 -24.726562 5.070312 -24.960938 C 4.289062 -25.195312 3.433594 -24.726562 3.199219 -23.867188 C 2.964844 -23.089844 2.730469 -22.152344 2.417969 -21.214844 C 0.390625 -14.273438 -2.652344 -3.742188 -3.433594 2.652344 C -3.511719 3.355469 -3.042969 4.054688 -2.339844 4.210938 C -2.183594 4.289062 -2.105469 4.289062 -1.949219 4.289062 C -1.324219 4.289062 -0.78125 3.898438 -0.546875 3.355469 C 6.785156 -14.898438 9.75 -16.144531 10.453125 -16.144531 C 10.609375 -16.144531 11.699219 -15.835938 13.183594 -10.6875 C 14.742188 -5.304688 16.769531 -2.574219 19.421875 -2.261719 C 23.398438 -1.792969 26.988281 -6.707031 31.902344 -15.289062 C 32.371094 -16.066406 32.058594 -16.925781 31.355469 -17.394531 Z M 31.355469 -17.394531 "/></g></g></g><g fill="#000000" fill-opacity="1"><g transform="translate(294.899536, 426.374999)"><g><path d="M 33.304688 -65.128906 C 32.761719 -65.597656 32.058594 -65.753906 31.355469 -65.597656 C 28.003906 -64.507812 21.996094 -48.203125 16.222656 -21.371094 C 16.066406 -20.902344 15.835938 -20.515625 15.601562 -20.046875 C 15.210938 -23.089844 13.183594 -23.945312 12.480469 -24.179688 C 9.125 -25.195312 3.820312 -22.152344 0.15625 -14.351562 C -2.652344 -8.503906 -3.199219 -0.859375 0.3125 1.171875 C 2.027344 2.183594 4.992188 2.027344 9.28125 -4.210938 C 11.152344 -6.863281 12.792969 -9.4375 14.351562 -11.933594 C 13.492188 -7.488281 12.636719 -2.808594 11.855469 2.105469 C 10.375 10.84375 9.28125 18.175781 8.65625 23.476562 C 7.410156 33.851562 8.035156 35.257812 9.59375 35.722656 C 9.75 35.800781 9.984375 35.800781 10.140625 35.800781 C 11.542969 35.800781 12.480469 34.007812 12.949219 32.839844 C 13.339844 32.136719 13.027344 31.199219 12.246094 30.886719 C 11.855469 30.652344 11.386719 30.652344 10.996094 30.808594 C 11.152344 27.457031 11.933594 19.8125 14.820312 2.652344 C 16.222656 -5.929688 17.707031 -13.570312 19.109375 -20.28125 C 24.960938 -31.355469 27.925781 -40.714844 30.34375 -48.125 C 30.652344 -49.0625 30.964844 -49.921875 31.199219 -50.699219 C 35.335938 -63.101562 33.773438 -64.585938 33.304688 -65.128906 Z M 6.785156 -5.929688 C 3.820312 -1.636719 2.183594 -1.246094 1.792969 -1.402344 C 0.625 -2.105469 0.234375 -7.488281 2.886719 -13.105469 C 5.539062 -18.71875 9.125 -21.371094 11.074219 -21.371094 C 11.308594 -21.371094 11.464844 -21.371094 11.621094 -21.292969 C 12.871094 -20.980469 12.636719 -18.71875 12.558594 -18.097656 C 12.480469 -17.394531 12.871094 -16.691406 13.570312 -16.457031 C 11.621094 -13.105469 9.359375 -9.59375 6.785156 -5.929688 Z M 28.390625 -51.636719 C 28.078125 -50.855469 27.769531 -49.996094 27.535156 -49.0625 C 26.128906 -44.851562 24.570312 -40.09375 22.464844 -34.710938 C 25.738281 -47.65625 28.703125 -55.769531 30.574219 -59.824219 C 30.265625 -57.953125 29.5625 -55.300781 28.390625 -51.636719 Z M 28.390625 -51.636719 "/></g></g></g><g fill="#000000" fill-opacity="1"><g transform="translate(319.313558, 426.374999)"><g><path d="M 22.777344 -17.707031 C 22.074219 -18.175781 21.214844 -17.941406 20.746094 -17.238281 C 15.523438 -8.8125 6.785156 -0.859375 4.132812 -1.949219 C 3.820312 -2.105469 1.324219 -3.589844 4.757812 -16.769531 C 4.914062 -17.628906 4.445312 -18.40625 3.664062 -18.640625 C 2.808594 -18.796875 2.027344 -18.328125 1.792969 -17.550781 C -1.015625 -6.550781 -0.625 -0.703125 2.886719 0.78125 C 3.433594 1.015625 3.976562 1.09375 4.523438 1.09375 C 10.375 1.09375 19.34375 -9.359375 23.320312 -15.679688 C 23.710938 -16.378906 23.476562 -17.316406 22.777344 -17.707031 Z M 4.367188 -24.023438 C 8.347656 -23.789062 8.269531 -28.78125 5.070312 -27.691406 C 3.433594 -27.222656 1.324219 -24.179688 4.367188 -24.023438 Z M 4.367188 -24.023438 "/></g></g></g><g fill="#000000" fill-opacity="1"><g transform="translate(339.047578, 426.374999)"><g><path d="M 16.691406 -28.9375 C 14.664062 -29.5625 9.359375 -29.171875 3.820312 -13.027344 C 6.941406 -30.652344 7.488281 -33.773438 7.410156 -34.320312 C 7.410156 -35.101562 6.707031 -35.800781 5.851562 -35.722656 C 5.070312 -35.644531 4.445312 -35.023438 4.445312 -34.242188 C 4.367188 -33.148438 2.417969 -22.621094 0.3125 -10.453125 C -0.15625 -7.800781 -0.703125 -5.070312 -1.171875 -2.261719 C -2.261719 -1.871094 -3.355469 -1.480469 -4.445312 -1.171875 C -5.226562 -0.9375 -5.695312 -0.15625 -5.460938 0.703125 C -5.226562 1.480469 -4.445312 1.949219 -3.664062 1.714844 C -3.042969 1.558594 -2.417969 1.324219 -1.792969 1.171875 C -5.148438 20.203125 -8.96875 41.964844 -10.765625 53.898438 C -10.84375 54.679688 -10.296875 55.457031 -9.515625 55.535156 C -9.4375 55.535156 -9.359375 55.613281 -9.28125 55.613281 C -8.578125 55.613281 -7.878906 55.066406 -7.800781 54.367188 C -5.851562 42.820312 -0.46875 15.445312 3.589844 -1.171875 C 6.007812 -2.417969 8.269531 -3.820312 10.375 -5.460938 C 13.726562 -8.191406 18.019531 -12.558594 19.5 -18.253906 C 20.980469 -23.476562 19.734375 -28.003906 16.691406 -28.9375 Z M 16.613281 -19.03125 C 15.132812 -13.492188 10.21875 -8.578125 4.601562 -5.148438 C 5.304688 -7.800781 5.929688 -10.0625 6.472656 -11.699219 C 10.53125 -23.632812 14.273438 -26.050781 15.601562 -26.050781 C 15.679688 -26.050781 15.757812 -26.050781 15.835938 -26.050781 C 16.847656 -25.738281 17.707031 -23.011719 16.613281 -19.03125 Z M 16.613281 -19.03125 "/></g></g></g><g fill="#000000" fill-opacity="1"><g transform="translate(362.603603, 426.374999)"><g><path d="M 32.605469 -17.316406 C 31.902344 -17.628906 30.964844 -17.316406 30.652344 -16.613281 C 24.726562 -4.523438 20.28125 -0.703125 18.175781 -1.09375 C 17.316406 -1.246094 14.507812 -2.886719 13.804688 -16.535156 C 13.804688 -17.160156 13.339844 -17.707031 12.792969 -17.863281 C 12.167969 -18.019531 11.464844 -17.863281 11.152344 -17.316406 C 10.6875 -16.769531 10.21875 -16.144531 9.75 -15.445312 C 7.800781 -12.792969 5.226562 -9.203125 2.105469 -5.851562 C 1.636719 -5.304688 1.246094 -4.992188 1.015625 -4.835938 C 0.46875 -7.566406 3.355469 -18.019531 7.957031 -21.292969 C 9.28125 -22.230469 11.074219 -22.933594 13.492188 -20.125 C 14.039062 -19.5 14.976562 -19.421875 15.601562 -19.96875 C 16.222656 -20.4375 16.300781 -21.449219 15.835938 -22.074219 C 12.871094 -25.507812 10.0625 -25.429688 8.191406 -24.804688 C 2.183594 -22.699219 -1.871094 -11.152344 -2.027344 -5.851562 C -2.105469 -3.664062 -1.480469 -2.261719 -0.234375 -1.792969 C 1.714844 -1.015625 3.664062 -3.121094 4.289062 -3.820312 C 6.941406 -6.707031 9.359375 -9.828125 11.074219 -12.246094 C 11.933594 -3.355469 14.039062 1.09375 17.550781 1.871094 C 17.863281 1.871094 18.175781 1.949219 18.484375 1.949219 C 23.789062 1.949219 29.484375 -7.332031 33.304688 -15.289062 C 33.695312 -16.066406 33.382812 -16.925781 32.605469 -17.316406 Z M 32.605469 -17.316406 "/></g></g></g><g fill="#000000" fill-opacity="1"><g transform="translate(391.619638, 426.374999)"><g><path d="M 31.355469 -17.394531 C 30.652344 -17.785156 29.71875 -17.550781 29.328125 -16.769531 C 27.457031 -13.570312 22.542969 -4.914062 19.734375 -5.226562 C 19.1875 -5.304688 17.628906 -6.085938 16.066406 -11.542969 C 14.976562 -15.367188 13.492188 -18.953125 10.609375 -19.109375 C 8.503906 -19.265625 6.160156 -17.628906 2.574219 -10.921875 C 3.511719 -14.273438 4.523438 -17.628906 5.304688 -20.359375 C 5.617188 -21.371094 5.851562 -22.230469 6.085938 -23.089844 C 6.316406 -23.867188 5.851562 -24.726562 5.070312 -24.960938 C 4.289062 -25.195312 3.433594 -24.726562 3.199219 -23.867188 C 2.964844 -23.089844 2.730469 -22.152344 2.417969 -21.214844 C 0.390625 -14.273438 -2.652344 -3.742188 -3.433594 2.652344 C -3.511719 3.355469 -3.042969 4.054688 -2.339844 4.210938 C -2.183594 4.289062 -2.105469 4.289062 -1.949219 4.289062 C -1.324219 4.289062 -0.78125 3.898438 -0.546875 3.355469 C 6.785156 -14.898438 9.75 -16.144531 10.453125 -16.144531 C 10.609375 -16.144531 11.699219 -15.835938 13.183594 -10.6875 C 14.742188 -5.304688 16.769531 -2.574219 19.421875 -2.261719 C 23.398438 -1.792969 26.988281 -6.707031 31.902344 -15.289062 C 32.371094 -16.066406 32.058594 -16.925781 31.355469 -17.394531 Z M 31.355469 -17.394531 "/></g></g></g><g fill="#000000" fill-opacity="1"><g transform="translate(419.465676, 426.374999)"><g/></g></g><g fill="#000000" fill-opacity="1"><g transform="translate(443.411704, 426.374999)"><g><path d="M 97.578125 -67.234375 C 97.34375 -71.761719 95.941406 -74.179688 93.445312 -74.410156 C 85.644531 -75.347656 71.527344 -48.828125 58.8125 -10.453125 C 64.195312 -48.59375 60.839844 -54.988281 57.019531 -55.847656 C 55.144531 -56.238281 49.609375 -57.484375 34.554688 -22.855469 C 27.691406 -7.175781 20.59375 12.167969 14.664062 31.042969 C 19.890625 5.539062 30.265625 -39.78125 33.695312 -54.054688 C 35.878906 -63.257812 35.410156 -68.71875 32.371094 -70.667969 C 30.730469 -71.683594 27.691406 -72.070312 22.308594 -67.9375 C 16.847656 -63.726562 10.84375 -56.160156 6.550781 -48.28125 C 3.664062 -42.898438 -0.78125 -32.761719 1.792969 -25.117188 C 4.210938 -17.941406 11.699219 -16.300781 17.550781 -16.222656 C 18.40625 -16.222656 19.03125 -16.847656 19.03125 -17.707031 C 19.109375 -18.5625 18.40625 -19.1875 17.550781 -19.1875 C 10.453125 -19.34375 6.160156 -21.605469 4.601562 -26.128906 C 1.09375 -36.738281 13.882812 -57.5625 24.179688 -65.597656 C 27.144531 -67.859375 29.640625 -68.875 30.808594 -68.09375 C 31.433594 -67.703125 33.304688 -65.519531 30.730469 -54.757812 C 29.328125 -48.75 23.320312 -23.011719 17.785156 2.105469 C 14.820312 15.757812 12.480469 26.675781 10.921875 34.476562 C 10.0625 39 9.4375 42.511719 9.046875 44.929688 C 8.503906 48.59375 8.347656 50.152344 9.90625 50.621094 C 10.0625 50.699219 10.21875 50.777344 10.453125 50.777344 C 11.699219 50.777344 12.324219 49.0625 13.027344 47.191406 C 13.027344 47.113281 13.027344 47.113281 13.105469 47.035156 C 19.578125 23.789062 28.625 -1.871094 37.285156 -21.683594 C 51.167969 -53.664062 56.160156 -52.960938 56.394531 -52.882812 C 56.472656 -52.882812 58.890625 -52.183594 58.578125 -38.921875 C 58.265625 -28.234375 56.316406 -11.933594 52.726562 9.359375 C 52.570312 10.140625 53.117188 10.921875 53.898438 11.074219 C 54.679688 11.230469 55.457031 10.84375 55.613281 10.0625 C 64.738281 -21.371094 73.085938 -40.871094 78.546875 -51.714844 C 86.425781 -67.390625 91.414062 -71.449219 93.054688 -71.449219 C 93.054688 -71.449219 93.132812 -71.449219 93.132812 -71.449219 C 93.757812 -71.371094 94.457031 -70.042969 94.613281 -67.078125 C 95.238281 -57.253906 90.558594 -31.511719 86.425781 -8.8125 C 79.324219 30.109375 78.625 37.128906 81.664062 38.21875 C 83.539062 38.921875 85.019531 36.738281 86.269531 34.554688 C 86.65625 33.851562 86.425781 32.914062 85.722656 32.527344 C 85.019531 32.136719 84.085938 32.371094 83.617188 33.070312 C 83.382812 33.539062 83.148438 33.929688 82.914062 34.242188 C 82.757812 28.234375 86.425781 8.191406 89.386719 -8.269531 C 93.757812 -32.292969 98.28125 -57.097656 97.578125 -67.234375 Z M 97.578125 -67.234375 "/></g></g></g><g fill="#000000" fill-opacity="1"><g transform="translate(542.237795, 426.374999)"><g><path d="M 32.605469 -17.316406 C 31.902344 -17.628906 30.964844 -17.316406 30.652344 -16.613281 C 24.726562 -4.523438 20.28125 -0.703125 18.175781 -1.09375 C 17.316406 -1.246094 14.507812 -2.886719 13.804688 -16.535156 C 13.804688 -17.160156 13.339844 -17.707031 12.792969 -17.863281 C 12.167969 -18.019531 11.464844 -17.863281 11.152344 -17.316406 C 10.6875 -16.769531 10.21875 -16.144531 9.75 -15.445312 C 7.800781 -12.792969 5.226562 -9.203125 2.105469 -5.851562 C 1.636719 -5.304688 1.246094 -4.992188 1.015625 -4.835938 C 0.46875 -7.566406 3.355469 -18.019531 7.957031 -21.292969 C 9.28125 -22.230469 11.074219 -22.933594 13.492188 -20.125 C 14.039062 -19.5 14.976562 -19.421875 15.601562 -19.96875 C 16.222656 -20.4375 16.300781 -21.449219 15.835938 -22.074219 C 12.871094 -25.507812 10.0625 -25.429688 8.191406 -24.804688 C 2.183594 -22.699219 -1.871094 -11.152344 -2.027344 -5.851562 C -2.105469 -3.664062 -1.480469 -2.261719 -0.234375 -1.792969 C 1.714844 -1.015625 3.664062 -3.121094 4.289062 -3.820312 C 6.941406 -6.707031 9.359375 -9.828125 11.074219 -12.246094 C 11.933594 -3.355469 14.039062 1.09375 17.550781 1.871094 C 17.863281 1.871094 18.175781 1.949219 18.484375 1.949219 C 23.789062 1.949219 29.484375 -7.332031 33.304688 -15.289062 C 33.695312 -16.066406 33.382812 -16.925781 32.605469 -17.316406 Z M 32.605469 -17.316406 "/></g></g></g><g fill="#000000" fill-opacity="1"><g transform="translate(571.25383, 426.374999)"><g><path d="M 22.933594 -73.085938 C 22.386719 -73.789062 21.605469 -74.101562 20.824219 -74.023438 C 16.378906 -73.242188 11.621094 -56.628906 10.296875 -51.558594 C 6.394531 -36.660156 1.480469 -15.523438 -2.496094 3.433594 C -4.367188 12.402344 -5.851562 19.96875 -6.785156 25.429688 C -8.347656 34.632812 -8.113281 35.800781 -6.628906 36.191406 C -6.472656 36.269531 -6.316406 36.269531 -6.160156 36.269531 C -4.757812 36.269531 -4.054688 34.398438 -3.355469 32.371094 C -3.121094 31.589844 -3.511719 30.730469 -4.289062 30.496094 C -4.367188 30.421875 -4.445312 30.421875 -4.523438 30.421875 C -2.886719 19.1875 3.820312 -13.492188 10.6875 -40.871094 C 10.6875 -40.949219 10.765625 -41.027344 10.84375 -41.105469 C 20.980469 -57.175781 24.960938 -69.964844 22.933594 -73.085938 Z M 13.339844 -51.402344 C 16.300781 -62.398438 18.953125 -67.703125 20.359375 -69.886719 C 20.046875 -67.003906 18.328125 -60.761719 13.339844 -51.402344 Z M 13.339844 -51.402344 "/></g></g></g><g fill="#000000" fill-opacity="1"><g transform="translate(583.109817, 426.374999)"><g><path d="M 22.933594 -73.085938 C 22.386719 -73.789062 21.605469 -74.101562 20.824219 -74.023438 C 16.378906 -73.242188 11.621094 -56.628906 10.296875 -51.558594 C 6.394531 -36.660156 1.480469 -15.523438 -2.496094 3.433594 C -4.367188 12.402344 -5.851562 19.96875 -6.785156 25.429688 C -8.347656 34.632812 -8.113281 35.800781 -6.628906 36.191406 C -6.472656 36.269531 -6.316406 36.269531 -6.160156 36.269531 C -4.757812 36.269531 -4.054688 34.398438 -3.355469 32.371094 C -3.121094 31.589844 -3.511719 30.730469 -4.289062 30.496094 C -4.367188 30.421875 -4.445312 30.421875 -4.523438 30.421875 C -2.886719 19.1875 3.820312 -13.492188 10.6875 -40.871094 C 10.6875 -40.949219 10.765625 -41.027344 10.84375 -41.105469 C 20.980469 -57.175781 24.960938 -69.964844 22.933594 -73.085938 Z M 13.339844 -51.402344 C 16.300781 -62.398438 18.953125 -67.703125 20.359375 -69.886719 C 20.046875 -67.003906 18.328125 -60.761719 13.339844 -51.402344 Z M 13.339844 -51.402344 "/></g></g></g><g fill="#000000" fill-opacity="1"><g transform="translate(594.965804, 426.374999)"><g><path d="M 22.777344 -17.707031 C 22.074219 -18.175781 21.214844 -17.941406 20.746094 -17.238281 C 15.523438 -8.8125 6.785156 -0.859375 4.132812 -1.949219 C 3.820312 -2.105469 1.324219 -3.589844 4.757812 -16.769531 C 4.914062 -17.628906 4.445312 -18.40625 3.664062 -18.640625 C 2.808594 -18.796875 2.027344 -18.328125 1.792969 -17.550781 C -1.015625 -6.550781 -0.625 -0.703125 2.886719 0.78125 C 3.433594 1.015625 3.976562 1.09375 4.523438 1.09375 C 10.375 1.09375 19.34375 -9.359375 23.320312 -15.679688 C 23.710938 -16.378906 23.476562 -17.316406 22.777344 -17.707031 Z M 4.367188 -24.023438 C 8.347656 -23.789062 8.269531 -28.78125 5.070312 -27.691406 C 3.433594 -27.222656 1.324219 -24.179688 4.367188 -24.023438 Z M 4.367188 -24.023438 "/></g></g></g><g fill="#000000" fill-opacity="1"><g transform="translate(614.699812, 426.374999)"><g><path d="M 33.539062 -17.550781 C 32.839844 -17.941406 31.902344 -17.707031 31.511719 -17.003906 C 24.882812 -6.394531 12.949219 2.574219 8.503906 1.714844 C 7.800781 1.636719 6.863281 1.246094 6.394531 -0.546875 C 6.628906 -0.859375 7.019531 -1.171875 7.410156 -1.480469 C 8.65625 -2.574219 10.453125 -4.132812 12.011719 -6.085938 C 14.507812 -9.359375 15.601562 -13.339844 14.664062 -15.601562 C 14.195312 -16.535156 13.414062 -17.160156 12.402344 -17.238281 C 10.21875 -17.394531 7.722656 -15.210938 4.757812 -10.609375 C 3.355469 -8.425781 2.027344 -6.007812 0.859375 -3.433594 C 3.277344 -14.273438 6.238281 -27.300781 8.503906 -37.050781 C 18.953125 -55.769531 24.179688 -69.808594 21.996094 -72.851562 C 21.527344 -73.476562 20.746094 -73.789062 19.96875 -73.632812 C 16.613281 -73.007812 11.386719 -61.621094 7.878906 -47.191406 C 7.332031 -45.007812 6.550781 -41.808594 5.695312 -38.0625 C 5.617188 -37.984375 5.617188 -37.828125 5.617188 -37.675781 C 1.171875 -18.875 -6.316406 14.351562 -6.394531 16.925781 C -6.394531 17.707031 -5.851562 18.328125 -5.148438 18.40625 C -5.070312 18.484375 -4.992188 18.484375 -4.835938 18.484375 C -4.210938 18.484375 -3.664062 18.019531 -3.433594 17.394531 L -3.121094 16.300781 C -0.546875 8.191406 2.730469 -2.027344 7.253906 -8.96875 C 9.90625 -13.105469 11.464844 -14.039062 11.933594 -14.195312 C 12.167969 -13.339844 11.777344 -10.6875 9.59375 -7.878906 C 8.269531 -6.238281 6.628906 -4.757812 5.382812 -3.742188 C 3.820312 -2.339844 3.121094 -1.714844 3.277344 -0.625 C 4.054688 3.199219 6.238281 4.367188 7.957031 4.679688 C 8.347656 4.757812 8.734375 4.757812 9.125 4.757812 C 16.613281 4.757812 28.78125 -7.019531 34.007812 -15.445312 C 34.476562 -16.144531 34.242188 -17.082031 33.539062 -17.550781 Z M 19.421875 -69.34375 C 18.875 -66.144531 16.613281 -59.515625 11.386719 -48.90625 C 14.429688 -60.214844 17.628906 -66.691406 19.421875 -69.34375 Z M 19.421875 -69.34375 "/></g></g></g></svg>